<svg version="1.1" xmlns="http://www.w3.org/2000/svg" xmlns:xlink="http://www.w3.org/1999/xlink" width="289.36878" height="210.58273" viewBox="0,0,289.36878,210.58273"><g transform="translate(-84.94783,-72.4564)"><g data-paper-data="{&quot;isPaintingLayer&quot;:true}" fill-rule="nonzero" stroke-miterlimit="10" stroke-dasharray="" stroke-dashoffset="0" style="mix-blend-mode: normal"><path d="M94.31751,129.12679c-0.00894,-0.19687 -0.04922,-0.4385 -0.12081,-0.72487c-0.06264,-0.27742 -0.12976,-0.49666 -0.20135,-0.65774h1.26182c0.21478,0 0.36692,-0.03579 0.4564,-0.10739c0.09845,-0.08054 0.14766,-0.2282 0.14766,-0.44297v-0.95307h-6.45675v2.85923h-1.44975v-8.14812h9.34282v6.7118c0,0.5101 -0.12081,0.88148 -0.36243,1.11416c-0.24162,0.23268 -0.64433,0.34901 -1.20812,0.34901zM94.57255,120.26722c-0.56379,0 -0.96202,-0.08502 -1.1947,-0.25504c-0.22372,-0.17899 -0.33559,-0.47877 -0.33559,-0.89938v-4.71168h1.38263v2.09408c0.3848,-0.13424 0.82332,-0.2998 1.31551,-0.49667c0.50115,-0.19687 0.97993,-0.40271 1.43633,-0.61749c0.4564,-0.21478 0.81436,-0.40271 1.07389,-0.56379l0.92623,1.02019c-0.25953,0.12529 -0.59064,0.27295 -0.99335,0.44298c-0.39376,0.17003 -0.82332,0.34454 -1.28867,0.52352c-0.4564,0.17899 -0.90386,0.34454 -1.34236,0.49668c-0.4385,0.14318 -0.81436,0.25953 -1.12758,0.34901v0.85911c0,0.16108 0.03579,0.27742 0.10739,0.34901c0.08054,0.0716 0.24162,0.10739 0.48325,0.10739h2.41625c0.28638,0 0.51457,-0.03579 0.68461,-0.10739c0.17003,-0.08054 0.2998,-0.2461 0.38929,-0.49667c0.08948,-0.25057 0.15214,-0.63986 0.18793,-1.16785c0.16108,0.08948 0.37586,0.18345 0.64433,0.2819c0.27742,0.08948 0.51457,0.16108 0.71145,0.21478c-0.08948,0.72487 -0.2282,1.27524 -0.41613,1.6511c-0.17899,0.37586 -0.41613,0.62643 -0.71145,0.75172c-0.29532,0.11633 -0.67566,0.17451 -1.141,0.17451h-3.20824zM90.12935,120.45515v-1.10073c-0.28638,0.0716 -0.62643,0.15214 -1.02019,0.24162c-0.39376,0.08948 -0.80542,0.17899 -1.23497,0.26847c-0.42061,0.08948 -0.82779,0.17452 -1.22154,0.25506c-0.39376,0.0716 -0.72935,0.12976 -1.00677,0.17451l-0.30874,-1.32893c0.30426,-0.04475 0.67118,-0.09844 1.10073,-0.16108c0.42956,-0.0716 0.87254,-0.14318 1.32894,-0.21478c0.4564,-0.08054 0.89043,-0.15661 1.30209,-0.2282c0.42061,-0.08054 0.77409,-0.15214 1.06047,-0.21478v-0.93965h-4.40294v-1.1947h4.40294v-1.61083h1.35579v6.05404h-1.35578zM89.40447,123.07276h6.45675v-1.02019h-6.45675zM89.40447,125.16684h6.45675v-1.02019h-6.45675zM105.87953,121.12633v-1.14099h6.47017v-0.84568h-3.85257v-4.51033h9.36967v4.51033h-3.89284v0.84569h6.44333v1.14101zM110.94022,129.05968c-0.00894,-0.19687 -0.04475,-0.4385 -0.10739,-0.72487c-0.06264,-0.28638 -0.13424,-0.5101 -0.21478,-0.67118h1.36921c0.22372,0 0.38034,-0.03579 0.46983,-0.10739c0.09845,-0.08054 0.14766,-0.22372 0.14766,-0.42956v-2.04039h-4.13447v-3.24851h9.40994v3.24851h-3.82572v2.49679c0,0.5101 -0.14766,0.88148 -0.44297,1.11416c-0.28638,0.24162 -0.71593,0.36244 -1.28867,0.36244zM109.98715,124.09295h6.37621v-1.23497h-6.3762zM119.28969,128.75094c-0.4385,-0.18793 -0.90833,-0.42956 -1.40947,-0.72487c-0.50114,-0.28638 -0.98887,-0.59958 -1.46317,-0.93965c-0.46535,-0.34007 -0.86805,-0.67118 -1.20812,-0.99335l0.95308,-0.95306c0.30426,0.29532 0.68908,0.60854 1.15443,0.93965c0.46535,0.33111 0.9486,0.63539 1.44975,0.9128c0.5101,0.26847 0.96202,0.47431 1.35579,0.61749c-0.07159,0.06264 -0.16556,0.16108 -0.28189,0.29532c-0.10739,0.14318 -0.21478,0.29084 -0.32217,0.44298c-0.09844,0.16108 -0.1745,0.29532 -0.2282,0.40271zM106.96683,128.75094c-0.04475,-0.10739 -0.12081,-0.24162 -0.2282,-0.40271c-0.10739,-0.15214 -0.21925,-0.2998 -0.33559,-0.44297c-0.10739,-0.13424 -0.19687,-0.23268 -0.26847,-0.29532c0.40271,-0.14318 0.85463,-0.34901 1.35579,-0.61749c0.5101,-0.27742 0.99782,-0.58169 1.46318,-0.9128c0.47431,-0.33111 0.85463,-0.64433 1.14101,-0.93965l0.93965,0.95308c-0.33111,0.32217 -0.73382,0.65328 -1.20812,0.99335c-0.46535,0.34007 -0.9486,0.65328 -1.44975,0.93965c-0.50115,0.29532 -0.97097,0.53694 -1.40947,0.72487zM109.94687,118.15972h6.45675v-0.81884h-6.45675zM109.94687,116.38781h6.45675v-0.76514h-6.45675zM130.12683,128.63011c-0.66223,0 -1.13653,-0.11186 -1.4229,-0.33559c-0.27742,-0.21478 -0.41613,-0.56827 -0.41613,-1.06046v-8.06758c-0.20583,0.10739 -0.41165,0.21925 -0.61749,0.33559c-0.19687,0.10739 -0.40271,0.2103 -0.61749,0.30875c-0.05369,-0.10739 -0.13871,-0.23715 -0.25504,-0.38928c-0.10739,-0.16108 -0.22372,-0.31322 -0.34901,-0.4564c-0.12528,-0.14318 -0.23267,-0.2461 -0.32217,-0.30874c0.87701,-0.37586 1.67348,-0.80989 2.3894,-1.30208c0.71593,-0.50115 1.33788,-1.02467 1.86588,-1.57056c0.53694,-0.55485 0.97545,-1.08731 1.31551,-1.5974l1.39605,0.52352c-0.14318,0.20583 -0.29084,0.41165 -0.44297,0.61749c-0.14318,0.19687 -0.2998,0.39376 -0.46982,0.59064h4.29555l0.57722,0.53694c-0.15213,0.21478 -0.33111,0.46983 -0.53694,0.76515c-0.20583,0.28638 -0.4206,0.57722 -0.64433,0.87254c-0.21478,0.28638 -0.42508,0.55036 -0.6309,0.79199h3.87942v5.07412h-9.38309v2.63102c0,0.22372 0.06712,0.39376 0.20136,0.5101c0.13424,0.10739 0.35797,0.16108 0.67118,0.16108h6.69838c0.4564,0 0.82779,-0.05369 1.11416,-0.16108c0.28638,-0.10739 0.50562,-0.30874 0.65776,-0.60406c0.15214,-0.29532 0.25058,-0.7204 0.29532,-1.27524c0.16108,0.09845 0.38481,0.20136 0.67118,0.30875c0.28638,0.09845 0.53247,0.17451 0.7383,0.22821c-0.10739,0.82332 -0.28189,1.44081 -0.52352,1.85246c-0.24162,0.41165 -0.57273,0.68461 -0.99335,0.81884c-0.4206,0.13424 -0.9486,0.20136 -1.58398,0.20136zM129.73755,122.68347h3.26194v-2.5102h-3.26193zM134.46266,122.68347h3.16797v-2.5102h-3.16797zM128.74419,118.8846h4.69826c0.20583,-0.25057 0.42061,-0.53247 0.64433,-0.84568c0.23268,-0.31321 0.43403,-0.60406 0.60407,-0.87253h-3.71833c-0.67118,0.61748 -1.41395,1.19022 -2.22832,1.71822z" fill="#182246" stroke="none" stroke-width="1" stroke-linecap="square" stroke-linejoin="miter"/><path d="M85.37739,166.9706v-1.31551h6.49702v-3.51698h-4.75195v-1.35578h4.75195v-3.0203h-5.82584v-1.31551h6.85946c-0.22372,-0.25057 -0.49667,-0.53247 -0.81884,-0.84568c-0.31322,-0.32217 -0.64433,-0.62643 -0.99335,-0.9128c-0.34007,-0.29532 -0.66224,-0.54142 -0.9665,-0.73829l1.11416,-1.03362c0.30426,0.18793 0.62643,0.42956 0.9665,0.72488c0.34901,0.28638 0.68908,0.58616 1.02019,0.89939c0.34007,0.30426 0.64433,0.59958 0.9128,0.88596c-0.08054,0.06264 -0.19687,0.16108 -0.34901,0.29532c-0.14318,0.12529 -0.28638,0.25953 -0.42956,0.40271c-0.13424,0.13424 -0.24162,0.24162 -0.32217,0.32217h6.2017v1.31551h-5.81241v3.02031h4.71169v1.35579h-4.71168v3.51698h6.47017v1.31551zM119.66555,167.3733c-1.26182,-0.63539 -2.29543,-1.46317 -3.10085,-2.48336c-0.79647,-1.02914 -1.30208,-2.20147 -1.51686,-3.51698h-0.89938v4.16131c0.47431,-0.08054 0.91728,-0.17003 1.32894,-0.26847c0.42061,-0.09845 0.76515,-0.18345 1.03362,-0.25504v1.31551c-0.30426,0.08948 -0.68012,0.18345 -1.12758,0.2819c-0.4385,0.10739 -0.90386,0.2103 -1.39605,0.30875c-0.48325,0.09845 -0.94413,0.18793 -1.38263,0.26847c-0.4385,0.08054 -0.79647,0.13424 -1.07389,0.16108l-0.28189,-1.32893c0.3848,-0.05369 0.89043,-0.12529 1.51687,-0.21478v-4.42979h-1.26182v-1.24839h1.26182v-6.6581h6.91316v1.20812h-5.53052v1.07389h4.84592v1.07389h-4.84591v1.10073h4.84592v1.07389h-4.84591v1.12758h6.01377v1.2484h-3.866c0.06264,0.32217 0.15214,0.63091 0.26847,0.92623c0.11633,0.29532 0.25505,0.57273 0.41614,0.83226c0.37586,-0.23268 0.76963,-0.5101 1.18128,-0.83226c0.41165,-0.32217 0.73382,-0.59958 0.9665,-0.83226l0.93965,0.97993c-0.29532,0.26847 -0.6667,0.55932 -1.11415,0.87254c-0.44746,0.31322 -0.86359,0.59064 -1.24839,0.83226c0.3848,0.42061 0.82332,0.80542 1.31551,1.15443c0.49219,0.34007 1.01572,0.64881 1.57057,0.92623c-0.0716,0.05369 -0.1745,0.15214 -0.30874,0.29532c-0.12529,0.15214 -0.2461,0.30875 -0.36243,0.46983c-0.11633,0.16108 -0.20135,0.28638 -0.25504,0.37586zM107.0608,167.50752c-0.0179,-0.21478 -0.06264,-0.46982 -0.13424,-0.76514c-0.0716,-0.29532 -0.14318,-0.528 -0.21478,-0.69803h1.23497c0.39376,0 0.68012,-0.07607 0.85911,-0.2282c0.18793,-0.15214 0.31769,-0.43403 0.38929,-0.84568c0.05369,-0.29532 0.10739,-0.64433 0.16108,-1.04704c0.05369,-0.40271 0.09845,-0.82332 0.13424,-1.26182c0.03579,-0.4385 0.05369,-0.84121 0.05369,-1.20812h-3.32905c0.05369,-0.32217 0.10291,-0.68908 0.14766,-1.10073c0.04475,-0.42061 0.08502,-0.85017 0.12082,-1.28867c0.04475,-0.44746 0.08054,-0.86805 0.10739,-1.26182c0.02685,-0.39376 0.04475,-0.7204 0.05369,-0.97992h2.95319v-2.04039h-3.39617v-1.26182h4.80565v4.51033h-3.074c-0.00894,0.17003 -0.02685,0.3848 -0.05369,0.64433c-0.0179,0.25953 -0.04027,0.51904 -0.06711,0.77857c-0.0179,0.25057 -0.03579,0.46535 -0.05369,0.64433h3.27536c-0.00894,1.12758 -0.04922,2.11198 -0.12081,2.95319c-0.06264,0.84121 -0.14766,1.57504 -0.25504,2.20147c-0.09845,0.59064 -0.2461,1.04704 -0.44297,1.36921c-0.19687,0.33111 -0.46982,0.55932 -0.81884,0.68461c-0.34007,0.13424 -0.77409,0.20136 -1.30208,0.20136zM136.26142,167.50752c-0.00894,-0.21478 -0.04922,-0.46982 -0.12081,-0.76514c-0.06264,-0.29532 -0.13424,-0.528 -0.21478,-0.69803h1.40948c0.43851,0 0.74725,-0.08502 0.92623,-0.25504c0.17899,-0.17899 0.30875,-0.50562 0.38929,-0.97992c0.06265,-0.33111 0.11634,-0.7562 0.16108,-1.27524c0.04475,-0.51904 0.07607,-1.06494 0.09397,-1.63768c0.02685,-0.58169 0.04028,-1.10968 0.04028,-1.58398h-3.22166c0.17004,0.13424 0.36692,0.30875 0.59064,0.52352c0.22373,0.20583 0.44298,0.42508 0.65776,0.65776c0.22373,0.23268 0.40718,0.4385 0.55037,0.61749c-0.08054,0.04475 -0.19687,0.11633 -0.34901,0.21478c-0.14318,0.08948 -0.28637,0.18793 -0.42956,0.29532c-0.13424,0.09845 -0.2461,0.17899 -0.33559,0.24162c-0.20583,-0.31322 -0.47877,-0.63986 -0.81884,-0.97992c-0.33111,-0.34901 -0.64433,-0.63539 -0.93965,-0.85911l0.95308,-0.71145h-1.69137c0.09845,-0.37586 0.19241,-0.81436 0.2819,-1.31551c0.08949,-0.5101 0.16556,-1.01125 0.22821,-1.50344c0.0716,-0.49219 0.12082,-0.88596 0.14766,-1.18128h4.3224v-1.61083h-4.7788v-1.24839h6.21513v4.06735h-4.52375c-0.00894,0.20583 -0.04027,0.46088 -0.09396,0.76515c-0.04474,0.30426 -0.08948,0.55932 -0.13424,0.76515h4.84592c0,0.76963 -0.01342,1.53029 -0.04027,2.28201c-0.02685,0.74278 -0.06264,1.43633 -0.10739,2.08066c-0.04474,0.63539 -0.10291,1.1768 -0.1745,1.62426c-0.09844,0.64433 -0.25057,1.14549 -0.4564,1.50344c-0.19687,0.35796 -0.46982,0.60854 -0.81884,0.75172c-0.34006,0.14318 -0.76962,0.21478 -1.28867,0.21478zM128.93213,167.50752c-0.02685,-0.21478 -0.0716,-0.46982 -0.13424,-0.76514c-0.06264,-0.29532 -0.12976,-0.528 -0.20135,-0.69803h1.34236c0.4385,0 0.74278,-0.08502 0.9128,-0.25504c0.17899,-0.17899 0.31769,-0.50562 0.41613,-0.97992c0.06265,-0.33111 0.11186,-0.7562 0.14766,-1.27524c0.0358,-0.51904 0.06265,-1.06494 0.08054,-1.63768c0.02685,-0.58169 0.04028,-1.10968 0.04028,-1.58398h-3.20824c0.16108,0.11633 0.34901,0.27742 0.56379,0.48325c0.22372,0.20583 0.44298,0.42061 0.65776,0.64433c0.21478,0.22372 0.39376,0.42956 0.53694,0.61749c-0.14318,0.08948 -0.32217,0.21925 -0.53694,0.38929c-0.20583,0.16108 -0.36692,0.2998 -0.48325,0.41614c-0.23268,-0.32217 -0.50562,-0.64881 -0.81884,-0.97992c-0.30426,-0.33111 -0.60854,-0.60854 -0.9128,-0.83226l0.97993,-0.73829h-1.6511c0.09845,-0.37586 0.19241,-0.81436 0.2819,-1.31551c0.08948,-0.5101 0.17003,-1.01125 0.24162,-1.50344c0.0716,-0.49219 0.11633,-0.88596 0.13424,-1.18128h4.20158v-1.61083h-4.64456v-1.24839h6.06747v4.06735h-4.38951c-0.0179,0.20583 -0.05369,0.46088 -0.10739,0.76515c-0.04475,0.30426 -0.08502,0.55932 -0.12081,0.76515h4.68483c0,0.76963 -0.01342,1.53029 -0.04027,2.28201c-0.02685,0.74278 -0.06264,1.43633 -0.10739,2.08066c-0.03579,0.63539 -0.09396,1.1768 -0.1745,1.62426c-0.09844,0.64433 -0.25057,1.14549 -0.4564,1.50344c-0.19687,0.35796 -0.46535,0.60854 -0.80542,0.75172c-0.34006,0.14318 -0.76962,0.21478 -1.28867,0.21478zM134.39554,165.494l-0.5101,-1.28867c0.39376,-0.10739 0.83674,-0.2461 1.32894,-0.41613c0.50115,-0.17003 0.99335,-0.34901 1.4766,-0.53694c0.48325,-0.19687 0.90386,-0.38034 1.26182,-0.55036l0.14766,1.26182c-0.34901,0.17899 -0.73829,0.35796 -1.16785,0.53694c-0.4206,0.17899 -0.85463,0.35349 -1.30208,0.52352c-0.4385,0.17003 -0.85016,0.32664 -1.23497,0.46983zM127.03941,165.48057l-0.49667,-1.28867c0.3848,-0.10739 0.82332,-0.2461 1.31551,-0.41613c0.50115,-0.17003 0.99335,-0.34901 1.4766,-0.53694c0.48325,-0.19687 0.90386,-0.38034 1.26182,-0.55036l0.16108,1.2484c-0.34901,0.17003 -0.73829,0.34901 -1.16785,0.53694c-0.42061,0.18793 -0.85463,0.36692 -1.30208,0.53694c-0.4385,0.17003 -0.85463,0.32664 -1.24839,0.46983zM154.81713,166.43365c-0.04475,-0.19687 -0.14319,-0.42956 -0.29532,-0.69803c-0.15214,-0.26847 -0.30874,-0.48773 -0.46982,-0.65775c1.48554,-0.08948 2.63997,-0.47877 3.46329,-1.16785c0.83226,-0.69803 1.24838,-1.62874 1.24838,-2.79211c0,-0.76066 -0.24162,-1.40053 -0.72487,-1.91957c-0.4743,-0.528 -1.1052,-0.8949 -1.89271,-1.10073c-0.30427,0.63539 -0.63539,1.25287 -0.99335,1.85246c-0.34901,0.59958 -0.71593,1.16337 -1.10073,1.69137c0.32217,0.24162 0.66223,0.45193 1.02019,0.63091c-0.17004,0.11633 -0.34007,0.29084 -0.5101,0.52352c-0.16108,0.22372 -0.28638,0.42956 -0.37586,0.61749c-0.34007,-0.17003 -0.68013,-0.3848 -1.02019,-0.64433c-0.34901,0.3848 -0.69803,0.72935 -1.04704,1.03362c-0.34901,0.30426 -0.69803,0.55932 -1.04704,0.76515c-0.5459,0.31322 -1.05152,0.46983 -1.51686,0.46983c-0.4564,0 -0.82779,-0.16556 -1.11415,-0.49667c-0.28638,-0.33111 -0.42956,-0.82779 -0.42956,-1.49001c0,-0.77857 0.17451,-1.53029 0.52352,-2.25516c0.34901,-0.73382 0.80989,-1.39158 1.38263,-1.97326c-0.33112,-0.58169 -0.62196,-1.15891 -0.87253,-1.73164c-0.25058,-0.58169 -0.46088,-1.13653 -0.6309,-1.66453l1.30209,-0.55036c0.08054,0.4564 0.22821,0.95308 0.44298,1.49002c0.21478,0.528 0.4743,1.06047 0.77857,1.59741c0.56379,-0.39376 1.17232,-0.70697 1.82561,-0.93965c0.65328,-0.23268 1.31551,-0.34901 1.98669,-0.34901c0.08054,0 0.15661,0.00448 0.22821,0.01343c0.07159,0 0.14318,0 0.21478,0c0.20583,-0.50115 0.38034,-1.00229 0.52352,-1.50344c0.14318,-0.5101 0.25505,-1.00229 0.33559,-1.4766l1.46318,0.38929c-0.21478,0.93965 -0.50115,1.8793 -0.85911,2.81896c0.74277,0.19687 1.38263,0.50562 1.91956,0.92623c0.5459,0.41165 0.96202,0.89939 1.2484,1.46318c0.29532,0.55485 0.44298,1.15891 0.44298,1.81219c0,1.4229 -0.46982,2.60865 -1.40947,3.55726c-0.9307,0.9486 -2.27753,1.53477 -4.04049,1.7585zM150.44104,163.38647c0.52799,-0.28638 1.09626,-0.79199 1.7048,-1.51686c-0.27742,-0.27742 -0.5459,-0.57721 -0.80542,-0.89938c-0.25058,-0.33111 -0.4922,-0.6667 -0.72487,-1.00677c-0.39376,0.44746 -0.70698,0.93518 -0.93965,1.46318c-0.22373,0.528 -0.33559,1.06047 -0.33559,1.59741c0,0.65328 0.36691,0.77409 1.10073,0.36244zM153.01836,160.74203c0.59958,-0.85911 1.14548,-1.78982 1.63768,-2.79211c-0.5459,0.00894 -1.08284,0.11186 -1.61083,0.30875c-0.51905,0.19687 -0.99782,0.4564 -1.43632,0.77857c0.21478,0.29532 0.4385,0.59064 0.67118,0.88596c0.23267,0.29532 0.47877,0.56827 0.7383,0.81884z" fill="#182246" stroke="none" stroke-width="1" stroke-linecap="square" stroke-linejoin="miter"/><path d="M85.88749,203.82105c-0.08054,-0.15214 -0.21925,-0.35349 -0.41613,-0.60406c-0.19687,-0.25057 -0.37138,-0.4385 -0.52352,-0.56379c0.44746,-0.17899 0.91728,-0.41613 1.40948,-0.71145c0.49219,-0.29532 0.9665,-0.61749 1.4229,-0.9665c0.46535,-0.34901 0.87254,-0.69356 1.22155,-1.03361h-3.51698v-1.20812h3.57068v-4.76537h-2.8458v-1.18128h2.8458v-1.40947h1.44975v1.40948h4.28213v-1.40947h1.46318v1.40948h2.81896v1.18128h-2.81896v4.76538h3.57068v1.20812h-3.55725c0.35796,0.33111 0.76963,0.6667 1.23497,1.00677c0.46535,0.33111 0.94413,0.63539 1.43633,0.9128c0.50115,0.27742 0.97993,0.5101 1.43633,0.69803c-0.16108,0.12529 -0.33559,0.32217 -0.52352,0.59064c-0.18793,0.26847 -0.32664,0.47431 -0.41613,0.61749c-0.58169,-0.28638 -1.16785,-0.62643 -1.75849,-1.02019c-0.59064,-0.40271 -1.15443,-0.84568 -1.69137,-1.32893c-0.528,-0.48325 -1.00229,-0.97544 -1.4229,-1.4766h-3.8123c-0.41165,0.50115 -0.88596,0.99782 -1.4229,1.49002c-0.528,0.48325 -1.08731,0.93071 -1.67795,1.34236c-0.58169,0.41165 -1.16785,0.76066 -1.75849,1.04704zM86.82714,205.7272v-1.26182h5.04727v-1.39605h-2.71157v-1.1947h2.71157v-1.57056h1.50344v1.57057h2.92634v1.1947h-2.92634v1.39605h5.18151v1.26182zM90.50521,198.73351h4.28213v-0.99335h-4.28212zM90.50521,196.80051h4.28213v-0.9665h-4.28212zM90.50521,194.90778h4.28213v-0.93965h-4.28212zM112.43024,205.98225v-2.8995h-2.8458v-1.35578h2.8458v-4.44321c-0.47431,0.74278 -1.0381,1.4945 -1.69137,2.25516c-0.64433,0.75172 -1.32893,1.45869 -2.05381,2.12093c-0.72487,0.65328 -1.44527,1.21707 -2.16119,1.69137c-0.08054,-0.08948 -0.18793,-0.20583 -0.32217,-0.34901c-0.13424,-0.15214 -0.27295,-0.29084 -0.41613,-0.41613c-0.13424,-0.12529 -0.2461,-0.21925 -0.33559,-0.28189c0.58169,-0.33111 1.17233,-0.74278 1.77191,-1.23497c0.60854,-0.49219 1.1947,-1.03361 1.7585,-1.62425c0.57273,-0.59064 1.10073,-1.19022 1.58398,-1.79876c0.48325,-0.61749 0.8949,-1.20812 1.23497,-1.77191h-5.66476v-1.35578h6.29567v-3.074h1.44975v3.07401h6.28224v1.35579h-5.65133c0.35796,0.59958 0.78304,1.20365 1.27525,1.81219c0.49219,0.60854 1.02019,1.1947 1.58398,1.7585c0.57274,0.56379 1.15891,1.08732 1.7585,1.57057c0.60854,0.47431 1.20365,0.86805 1.78534,1.18128c-0.09844,0.0716 -0.22372,0.17899 -0.37586,0.32217c-0.14318,0.13424 -0.28189,0.27742 -0.41613,0.42956c-0.13424,0.14318 -0.23715,0.26847 -0.30874,0.37586c-0.75172,-0.50115 -1.49449,-1.08283 -2.22832,-1.74507c-0.73382,-0.66224 -1.41843,-1.36473 -2.05381,-2.1075c-0.62643,-0.74278 -1.1768,-1.4945 -1.6511,-2.25516v4.51033h2.91292v1.35579h-2.91292v2.8995zM130.12683,205.60639c-0.66223,0 -1.13653,-0.11186 -1.4229,-0.33559c-0.27742,-0.21478 -0.41613,-0.56827 -0.41613,-1.06046v-8.06758c-0.20583,0.10739 -0.41165,0.21925 -0.61749,0.33559c-0.19687,0.10739 -0.40271,0.2103 -0.61749,0.30875c-0.05369,-0.10739 -0.13871,-0.23715 -0.25504,-0.38928c-0.10739,-0.16108 -0.22372,-0.31322 -0.34901,-0.4564c-0.12528,-0.14318 -0.23267,-0.2461 -0.32217,-0.30874c0.87701,-0.37586 1.67348,-0.80989 2.3894,-1.30208c0.71593,-0.50115 1.33788,-1.02467 1.86588,-1.57056c0.53694,-0.55485 0.97545,-1.08731 1.31551,-1.5974l1.39605,0.52352c-0.14318,0.20583 -0.29084,0.41165 -0.44297,0.61749c-0.14318,0.19687 -0.2998,0.39376 -0.46982,0.59064h4.29555l0.57722,0.53694c-0.15213,0.21478 -0.33111,0.46983 -0.53694,0.76515c-0.20583,0.28638 -0.4206,0.57722 -0.64433,0.87254c-0.21478,0.28638 -0.42508,0.55037 -0.6309,0.792h3.87942v5.07412h-9.38309v2.63102c0,0.22372 0.06712,0.39376 0.20136,0.5101c0.13424,0.10739 0.35797,0.16108 0.67118,0.16108h6.69838c0.4564,0 0.82779,-0.05369 1.11416,-0.16108c0.28638,-0.10739 0.50562,-0.30874 0.65776,-0.60406c0.15214,-0.29532 0.25058,-0.7204 0.29532,-1.27524c0.16108,0.09845 0.38481,0.20136 0.67118,0.30875c0.28638,0.09845 0.53247,0.17451 0.7383,0.22821c-0.10739,0.82332 -0.28189,1.44081 -0.52352,1.85246c-0.24162,0.41165 -0.57273,0.68461 -0.99335,0.81884c-0.4206,0.13424 -0.9486,0.20136 -1.58398,0.20136zM129.73755,199.65973h3.26194v-2.51021h-3.26193zM134.46266,199.65973h3.16797v-2.51021h-3.16797zM128.74419,195.86086h4.69826c0.20583,-0.25057 0.42061,-0.53247 0.64433,-0.84568c0.23268,-0.31322 0.43403,-0.60406 0.60407,-0.87253h-3.71833c-0.67118,0.61749 -1.41395,1.19022 -2.22832,1.71822z" fill="#182246" stroke="none" stroke-width="1" stroke-linecap="square" stroke-linejoin="miter"/><path d="M98.9218,244.55092c-0.0716,-0.15213 -0.1745,-0.34006 -0.30874,-0.56379c-0.12529,-0.21478 -0.264,-0.44297 -0.41613,-0.6846c-0.35796,0.07159 -0.79199,0.14319 -1.30208,0.21478c-0.50115,0.07159 -1.03361,0.13871 -1.5974,0.20136c-0.56379,0.06265 -1.12758,0.12082 -1.69137,0.17451c-0.55485,0.05369 -1.07389,0.09844 -1.55714,0.13424c-0.48325,0.04474 -0.89043,0.07159 -1.22154,0.08054l-0.26847,-1.32893c0.42956,-0.0179 0.97544,-0.04922 1.63768,-0.09396c0.67118,-0.04474 1.36473,-0.10291 2.08066,-0.1745v-2.29543h-3.14112v-4.36266h3.14112v-1.46317c-0.65328,0.07159 -1.28867,0.13424 -1.90615,0.18793c-0.60854,0.05369 -1.10521,0.09397 -1.49001,0.12082l-0.24162,-1.28867c0.21478,-0.00895 0.4564,-0.02237 0.72487,-0.04027c0.27742,-0.02685 0.56379,-0.04922 0.85911,-0.06711c0.12529,-0.22373 0.264,-0.4922 0.41614,-0.80542c0.15214,-0.32217 0.2998,-0.65328 0.44298,-0.99335c0.15214,-0.34006 0.2819,-0.66223 0.38929,-0.9665c0.11633,-0.31321 0.20136,-0.57274 0.25505,-0.77857l1.55714,0.22821c-0.08948,0.22373 -0.22372,0.52799 -0.40271,0.9128c-0.17899,0.37586 -0.37586,0.76962 -0.59064,1.18128c-0.20583,0.41166 -0.40271,0.78304 -0.59064,1.11416c0.58169,-0.05369 1.15891,-0.11186 1.73165,-0.1745c0.57273,-0.07159 1.08283,-0.13424 1.53029,-0.18793c-0.17899,-0.22373 -0.35796,-0.43403 -0.53694,-0.6309c-0.17003,-0.20583 -0.34007,-0.38928 -0.5101,-0.55036l1.07389,-0.73829c0.30426,0.28637 0.63539,0.63986 0.99335,1.06047c0.35796,0.41166 0.69803,0.82779 1.02019,1.2484c0.33111,0.4206 0.58616,0.78304 0.76515,1.08732c-0.0716,0.0358 -0.18793,0.10739 -0.34901,0.21478c-0.16108,0.10739 -0.32217,0.21925 -0.48325,0.33559c-0.16108,0.11634 -0.27742,0.2103 -0.34901,0.2819c-0.09845,-0.17898 -0.21925,-0.36691 -0.36243,-0.56379c-0.13424,-0.20583 -0.27742,-0.4206 -0.42956,-0.64433c-0.25953,0.0358 -0.57721,0.08054 -0.95307,0.13424c-0.36692,0.05369 -0.7562,0.10739 -1.16785,0.16108v1.62426h3.1814v4.36267h-3.18139v2.1612c0.34007,-0.0358 0.66224,-0.07159 0.9665,-0.10739c0.30426,-0.0358 0.58616,-0.07159 0.84569,-0.10739c-0.14318,-0.19688 -0.27742,-0.38481 -0.40271,-0.56379c-0.11633,-0.17898 -0.2282,-0.32664 -0.33559,-0.44297l1.12758,-0.65775c0.25057,0.27742 0.52352,0.62196 0.81884,1.03362c0.29532,0.41166 0.57273,0.82331 0.83226,1.23497c0.25953,0.40271 0.46088,0.7383 0.60407,1.00677c-0.08948,0.0358 -0.21478,0.10291 -0.37586,0.20136c-0.16108,0.10739 -0.31769,0.21478 -0.46982,0.32217c-0.15214,0.10739 -0.27295,0.19241 -0.36243,0.25505zM86.2902,244.48381c-0.0179,-0.21478 -0.06264,-0.46982 -0.13424,-0.76514c-0.06264,-0.29532 -0.12976,-0.52799 -0.20135,-0.69803h1.20812c0.41165,0 0.69803,-0.07607 0.85911,-0.2282c0.16108,-0.15213 0.29084,-0.43403 0.38929,-0.84568c0.09845,-0.43851 0.17451,-0.97097 0.22821,-1.5974c0.06264,-0.62644 0.09397,-1.23497 0.09397,-1.82561h-3.08743c0.08054,-0.43851 0.14318,-0.9486 0.18793,-1.53029c0.05369,-0.58169 0.09397,-1.14995 0.12082,-1.70479c0.03579,-0.55484 0.05369,-1.02019 0.05369,-1.39605h2.72499v-2.08065h-3.03373v-1.26182h4.44321v4.5506h-2.80553c0,0.17004 -0.00894,0.38481 -0.02685,0.64433c-0.0179,0.25058 -0.04027,0.50114 -0.06711,0.75172c-0.0179,0.25058 -0.04027,0.4743 -0.06711,0.67118h3.04716c0,1.15443 -0.03579,2.12988 -0.10739,2.92634c-0.06264,0.79646 -0.14766,1.50792 -0.25504,2.13436c-0.13424,0.84121 -0.39823,1.42738 -0.79199,1.7585c-0.3848,0.33112 -0.97544,0.49668 -1.77191,0.49668zM95.67329,238.99356h1.82561v-1.91957h-1.82561zM92.47847,238.99356h1.79876v-1.91957h-1.79876zM117.19561,244.43012c-0.0179,-0.18793 -0.05817,-0.42508 -0.12081,-0.71145c-0.06264,-0.27742 -0.12528,-0.4922 -0.18793,-0.64433h1.16786c0.21478,0 0.36244,-0.03132 0.44298,-0.09396c0.08949,-0.07159 0.13424,-0.20583 0.13424,-0.40271v-10.9805h-5.34259v5.18151c0,1.24392 -0.04475,2.33123 -0.13424,3.26194c-0.08948,0.92176 -0.2282,1.73612 -0.41613,2.44309c-0.17899,0.70698 -0.41613,1.34684 -0.71145,1.91958c-0.15214,-0.06265 -0.35796,-0.14319 -0.61749,-0.24162c-0.25953,-0.09844 -0.45193,-0.15661 -0.57721,-0.1745c0.30426,-0.57274 0.54142,-1.19023 0.71145,-1.85246c0.17899,-0.67118 0.30426,-1.4408 0.37586,-2.30886c0.0716,-0.86806 0.10739,-1.88378 0.10739,-3.04715v-6.34936h7.90649v12.63161c0,0.9128 -0.52799,1.36921 -1.58398,1.36921zM106.45674,243.93344v-4.45663h4.33583v4.45663zM113.98738,241.79909v-4.13447h3.78545v4.13447zM113.51755,236.71154v-1.141h1.78534v-1.12758h-1.4766v-1.141h1.4766v-1.30208h1.20812v1.30209h1.51687v1.14101h-1.51686v1.12758h1.83904v1.14101zM105.66475,233.98656v-1.16785h5.75873v1.16786zM106.45674,231.78509v-1.20812h4.28213v1.20812zM106.44332,238.44319v-1.18128h4.29555v1.18128zM106.44332,236.21488v-1.16785h4.29555v1.16786zM107.69171,242.77901h1.8793v-2.14778h-1.8793zM115.16865,240.68493h1.4229v-1.90615h-1.4229zM130.12683,244.09452c-0.66223,0 -1.13653,-0.11186 -1.4229,-0.33559c-0.27742,-0.21478 -0.41613,-0.56827 -0.41613,-1.06046v-8.06758c-0.20583,0.10739 -0.41165,0.21925 -0.61749,0.33559c-0.19687,0.10739 -0.40271,0.2103 -0.61749,0.30875c-0.05369,-0.10739 -0.13871,-0.23715 -0.25504,-0.38928c-0.10739,-0.16108 -0.22372,-0.31321 -0.34901,-0.4564c-0.12528,-0.14319 -0.23267,-0.2461 -0.32217,-0.30874c0.87701,-0.37586 1.67348,-0.80989 2.3894,-1.30208c0.71593,-0.50114 1.33788,-1.02467 1.86588,-1.57056c0.53694,-0.55484 0.97545,-1.08731 1.31551,-1.5974l1.39605,0.52352c-0.14318,0.20583 -0.29084,0.41166 -0.44297,0.61749c-0.14318,0.19688 -0.2998,0.39376 -0.46982,0.59064h4.29555l0.57722,0.53694c-0.15213,0.21478 -0.33111,0.46983 -0.53694,0.76515c-0.20583,0.28637 -0.4206,0.57722 -0.64433,0.87254c-0.21478,0.28637 -0.42508,0.55037 -0.6309,0.792h3.87942v5.07412h-9.38309v2.63102c0,0.22373 0.06712,0.39376 0.20136,0.5101c0.13424,0.10739 0.35797,0.16108 0.67118,0.16108h6.69838c0.4564,0 0.82779,-0.05369 1.11416,-0.16108c0.28638,-0.10739 0.50562,-0.30874 0.65776,-0.60406c0.15214,-0.29532 0.25058,-0.7204 0.29532,-1.27524c0.16108,0.09844 0.38481,0.20136 0.67118,0.30875c0.28638,0.09844 0.53247,0.17451 0.7383,0.22821c-0.10739,0.82331 -0.28189,1.4408 -0.52352,1.85246c-0.24162,0.41166 -0.57273,0.68461 -0.99335,0.81884c-0.4206,0.13424 -0.9486,0.20136 -1.58398,0.20136zM129.73755,238.14787h3.26194v-2.51021h-3.26193zM134.46266,238.14787h3.16797v-2.51021h-3.16797zM128.74419,234.34899h4.69826c0.20583,-0.25058 0.42061,-0.53247 0.64433,-0.84568c0.23268,-0.31321 0.43403,-0.60406 0.60407,-0.87253h-3.71833c-0.67118,0.61749 -1.41395,1.19023 -2.22832,1.71822z" fill="#182246" stroke="none" stroke-width="1" stroke-linecap="square" stroke-linejoin="miter"/><path d="M85.88749,282.94509c-0.02685,-0.11634 -0.08948,-0.26849 -0.18793,-0.45642c-0.08948,-0.18793 -0.19241,-0.37586 -0.30874,-0.56379c-0.10739,-0.17898 -0.20583,-0.31321 -0.29532,-0.40271c1.36026,-0.27742 2.58627,-0.67118 3.67807,-1.18128c1.10073,-0.51905 2.06276,-1.15443 2.88608,-1.90615c-1.20812,-1.4587 -2.18357,-3.40064 -2.92634,-5.82584h-3.19482v-1.32893h6.30909v-2.92634h1.59741v2.92634h6.26882v1.32894h-3.03373c-0.36692,1.22602 -0.79199,2.31781 -1.27524,3.27536c-0.47431,0.95755 -1.02019,1.80324 -1.63768,2.53706c1.66453,1.48555 3.82124,2.49679 6.47017,3.03373c-0.08948,0.09844 -0.19687,0.24609 -0.32217,0.44298c-0.11633,0.19688 -0.22372,0.38929 -0.32217,0.57722c-0.09845,0.19688 -0.16556,0.3535 -0.20135,0.46984c-1.41396,-0.40272 -2.67129,-0.87702 -3.77203,-1.42292c-1.09179,-0.5459 -2.06276,-1.20812 -2.91292,-1.98669c-0.86805,0.77857 -1.8614,1.43633 -2.98004,1.97327c-1.10968,0.53694 -2.3894,1.01573 -3.83915,1.43634zM92.70668,277.33402c1.05598,-1.27971 1.81219,-2.85475 2.26859,-4.72511h-4.63114c0.47431,1.83456 1.26182,3.40959 2.36255,4.72511zM110.45697,283.03906c-0.0179,-0.21479 -0.06264,-0.4788 -0.13424,-0.79201c-0.0716,-0.30427 -0.14318,-0.54142 -0.21478,-0.71145h1.78534c0.23268,0 0.39376,-0.04027 0.48325,-0.12081c0.09845,-0.08054 0.14766,-0.2282 0.14766,-0.44297v-2.5639h-6.61783v-1.31551h6.61784v-1.49001h0.81884c0.14318,-0.08054 0.30875,-0.19241 0.49668,-0.33559c0.19687,-0.15213 0.39376,-0.30427 0.59064,-0.4564c0.20583,-0.16108 0.3848,-0.30874 0.53694,-0.44297h-5.89295v-1.32893h7.81253l0.56379,0.75172c-0.31321,0.28637 -0.67118,0.60407 -1.07389,0.95308c-0.40271,0.34006 -0.80542,0.6667 -1.20812,0.97993c-0.40271,0.30427 -0.76066,0.55932 -1.07389,0.76515v0.60407h6.28224v1.31551h-6.28224v3.07401c0,0.53694 -0.14766,0.9307 -0.44297,1.18128c-0.28638,0.25058 -0.73382,0.37588 -1.34236,0.37588zM106.36277,274.03181v-3.73176h5.94666v-1.91957h1.63768v1.91958h5.98692v3.69149h-1.49001v-2.42967h-10.56437v2.46994zM130.12683,282.58265c-0.66223,0 -1.13653,-0.11186 -1.4229,-0.33559c-0.27742,-0.21478 -0.41613,-0.56827 -0.41613,-1.06046v-8.06758c-0.20583,0.10739 -0.41165,0.21925 -0.61749,0.33559c-0.19687,0.10739 -0.40271,0.2103 -0.61749,0.30875c-0.05369,-0.10739 -0.13871,-0.23715 -0.25504,-0.38928c-0.10739,-0.16108 -0.22372,-0.31321 -0.34901,-0.4564c-0.12528,-0.14319 -0.23267,-0.2461 -0.32217,-0.30874c0.87701,-0.37586 1.67348,-0.80989 2.3894,-1.30208c0.71593,-0.50114 1.33788,-1.02467 1.86588,-1.57056c0.53694,-0.55484 0.97545,-1.08731 1.31551,-1.5974l1.39605,0.52352c-0.14318,0.20583 -0.29084,0.41166 -0.44297,0.61749c-0.14318,0.19688 -0.2998,0.39376 -0.46982,0.59064h4.29555l0.57722,0.53694c-0.15213,0.21478 -0.33111,0.46983 -0.53694,0.76515c-0.20583,0.28637 -0.4206,0.57722 -0.64433,0.87254c-0.21478,0.28637 -0.42508,0.55037 -0.6309,0.792h3.87942v5.07412h-9.38309v2.63102c0,0.22373 0.06712,0.39376 0.20136,0.5101c0.13424,0.10739 0.35797,0.16108 0.67118,0.16108h6.69838c0.4564,0 0.82779,-0.05369 1.11416,-0.16108c0.28638,-0.10739 0.50562,-0.30874 0.65776,-0.60406c0.15214,-0.29532 0.25058,-0.7204 0.29532,-1.27524c0.16108,0.09844 0.38481,0.20136 0.67118,0.30875c0.28638,0.09844 0.53247,0.17451 0.7383,0.22821c-0.10739,0.82331 -0.28189,1.4408 -0.52352,1.85246c-0.24162,0.41166 -0.57273,0.68461 -0.99335,0.81884c-0.4206,0.13424 -0.9486,0.20136 -1.58398,0.20136zM129.73755,276.63597h3.26194v-2.51021h-3.26193zM134.46266,276.63597h3.16797v-2.51021h-3.16797zM128.74419,272.83712h4.69826c0.20583,-0.25058 0.42061,-0.53247 0.64433,-0.84568c0.23268,-0.31321 0.43403,-0.60406 0.60407,-0.87253h-3.71833c-0.67118,0.61749 -1.41395,1.19023 -2.22832,1.71822z" fill="#182246" stroke="none" stroke-width="1" stroke-linecap="square" stroke-linejoin="miter"/><path d="M320.29526,85.17523c-0.04474,-0.08948 -0.12081,-0.19687 -0.2282,-0.32217c-0.10739,-0.13424 -0.21925,-0.264 -0.33559,-0.38928c-0.10739,-0.12529 -0.20135,-0.22372 -0.28189,-0.29532c0.88596,-0.40271 1.54372,-0.91728 1.97327,-1.54371c0.42956,-0.63539 0.7025,-1.405 0.81884,-2.30886h-1.43632v-1.00677c-0.4206,0.27742 -0.83226,0.51904 -1.23497,0.72487c-0.04474,-0.08054 -0.11634,-0.18793 -0.21478,-0.32217c-0.09844,-0.14318 -0.2103,-0.27742 -0.33559,-0.40271c-0.11634,-0.13424 -0.21925,-0.23268 -0.30874,-0.29532c0.4206,-0.18793 0.85016,-0.41613 1.28867,-0.6846c0.44745,-0.27742 0.88148,-0.57273 1.30209,-0.88596c0.4206,-0.31322 0.78752,-0.61301 1.10073,-0.89938h-3.18139v-1.07389h4.25528v-1.06046c-0.59064,0.04475 -1.18128,0.08054 -1.77191,0.10739c-0.58169,0.02685 -1.12311,0.04475 -1.62425,0.05369c-0.00895,-0.14318 -0.04474,-0.34454 -0.10739,-0.60406c-0.06265,-0.25953 -0.12081,-0.44746 -0.1745,-0.56379c0.65328,0.00894 1.33788,0 2.05381,-0.02685c0.72487,-0.03579 1.4408,-0.08502 2.14778,-0.14766c0.71592,-0.06264 1.38263,-0.14318 2.00012,-0.24162c0.62644,-0.09845 1.17232,-0.2103 1.63768,-0.33559l0.63091,1.06047c-0.43851,0.11633 -0.95755,0.22372 -1.55714,0.32217c-0.59959,0.08948 -1.23049,0.17451 -1.89272,0.25505v1.18128h4.59087v1.07389h-3.47671c0.33112,0.27742 0.7025,0.56379 1.11416,0.85911c0.41166,0.29532 0.84121,0.57273 1.28867,0.83226c0.44745,0.25953 0.88148,0.48325 1.30209,0.67118c-0.08949,0.0716 -0.19241,0.17899 -0.30874,0.32217c-0.11634,0.13424 -0.2282,0.27295 -0.33559,0.41614c-0.09844,0.14318 -0.16556,0.25953 -0.20135,0.34901c-0.4922,-0.25953 -0.98439,-0.55036 -1.4766,-0.87253c-0.4922,-0.33111 -0.95755,-0.68012 -1.39605,-1.04704c-0.42956,-0.37586 -0.79646,-0.75172 -1.10073,-1.12758v2.17462h1.7048l-0.37586,1.53029h2.34913c-0.09844,0.95756 -0.20583,1.72716 -0.32217,2.30886c-0.11634,0.57273 -0.27295,1.01125 -0.46982,1.31551c-0.18793,0.29532 -0.43851,0.49668 -0.75172,0.60407c-0.30427,0.09845 -0.69803,0.14766 -1.18128,0.14766h-1.18128c-0.00895,-0.16108 -0.04027,-0.37586 -0.09396,-0.64433c-0.05369,-0.27742 -0.11186,-0.49667 -0.1745,-0.65775h1.27525c0.32217,0 0.56379,-0.04027 0.72487,-0.12081c0.17004,-0.08054 0.2998,-0.25504 0.38929,-0.52352c0.08949,-0.26847 0.17898,-0.6846 0.26847,-1.24839h-2.42967l0.40271,-1.51686h-1.40947c-0.13424,1.16337 -0.44745,2.12987 -0.93965,2.8995c-0.48325,0.76963 -1.25287,1.4229 -2.30886,1.95984zM324.20153,86.8666c-1.10073,0 -2.04934,-0.05817 -2.8458,-0.1745c-0.78752,-0.10739 -1.4587,-0.28189 -2.01354,-0.52352c-0.5459,-0.24162 -1.02019,-0.55485 -1.4229,-0.93965c-0.17898,0.14318 -0.41613,0.31322 -0.71145,0.5101c-0.28637,0.18793 -0.57721,0.37586 -0.87253,0.56379c-0.28637,0.19687 -0.53247,0.36244 -0.73829,0.49668l-0.6309,-1.39605c0.18793,-0.0716 0.4206,-0.17899 0.69803,-0.32217c0.28637,-0.14318 0.56827,-0.29532 0.84569,-0.4564c0.28637,-0.16108 0.51457,-0.2998 0.68461,-0.41613v-4.10762h-1.95984v-1.28867h3.32905v5.2889c0.39376,0.55485 1.02915,0.94413 1.90615,1.16786c0.87701,0.21478 2.12093,0.32217 3.73176,0.32217c1.29762,0 2.4073,-0.02237 3.32905,-0.06711c0.92176,-0.04475 1.70033,-0.10291 2.33571,-0.1745c-0.0358,0.0716 -0.08054,0.20583 -0.13424,0.40271c-0.05369,0.19687 -0.10291,0.39823 -0.14766,0.60407c-0.0358,0.20583 -0.06265,0.36692 -0.08054,0.48325c-0.25952,0 -0.60406,0 -1.03361,0c-0.4206,0.00894 -0.87701,0.01343 -1.36921,0.01343c-0.4922,0.00894 -0.98887,0.01343 -1.49001,0.01343c-0.50114,0 -0.97097,0 -1.40947,0zM317.97299,76.42305c-0.17004,-0.26847 -0.39823,-0.55485 -0.6846,-0.85911c-0.27742,-0.30426 -0.56827,-0.59958 -0.87253,-0.88596c-0.30427,-0.28638 -0.58616,-0.52352 -0.84568,-0.71145l0.9665,-0.9128c0.26847,0.17899 0.55932,0.41165 0.87254,0.69803c0.32217,0.27742 0.62644,0.56827 0.9128,0.87254c0.29532,0.29532 0.53694,0.56379 0.72487,0.80542c-0.08054,0.05369 -0.19241,0.14318 -0.33559,0.26847c-0.14319,0.12529 -0.28637,0.25953 -0.42956,0.40271c-0.14319,0.13424 -0.2461,0.24162 -0.30874,0.32217zM321.06041,79.12117h2.41625v-2.12093c-0.29532,0.35796 -0.65328,0.72487 -1.07389,1.10073c-0.4206,0.36692 -0.86806,0.70697 -1.34236,1.02019zM342.48877,86.8666c-0.13424,-0.20583 -0.29084,-0.41613 -0.46982,-0.6309c-0.17898,-0.20583 -0.37586,-0.38034 -0.59064,-0.52352c1.17232,-0.54589 2.04934,-1.28867 2.63102,-2.22832c0.58169,-0.93965 0.87254,-2.21489 0.87254,-3.82572v-1.53029c-0.75172,0.05369 -1.46317,0.10291 -2.13435,0.14766c-0.66223,0.04475 -1.15891,0.0716 -1.49001,0.08054l-0.20135,-1.49001c0.40271,0.0179 0.9486,0.0179 1.63768,0c0.69803,-0.0179 1.42738,-0.05369 2.18805,-0.10739v-3.36932h1.43633v3.23509c0.56379,-0.05369 1.07836,-0.11186 1.54372,-0.1745c0.4743,-0.0716 0.85911,-0.14766 1.15443,-0.2282v1.49002c-0.26847,0.04475 -0.64433,0.09397 -1.12758,0.14766c-0.48325,0.05369 -1.00677,0.10739 -1.57056,0.16108v1.63768c0,1.76297 -0.30874,3.22614 -0.92622,4.38952c-0.61749,1.15443 -1.60188,2.09408 -2.95319,2.81896zM337.75025,84.59802c-0.08054,-0.4385 -0.14766,-1.00677 -0.20135,-1.70479c-0.05369,-0.69803 -0.09844,-1.45422 -0.13424,-2.26857c-0.02685,-0.81436 -0.04027,-1.62874 -0.04027,-2.44309c0,-0.82332 0.01343,-1.57951 0.04028,-2.26858c0.02685,-0.69803 0.07159,-1.26182 0.13424,-1.69137l1.49002,0.21478c-0.07159,0.40271 -0.12976,0.93518 -0.1745,1.59742c-0.0358,0.65328 -0.05817,1.36921 -0.06711,2.14778c-0.00895,0.77857 0.00448,1.55265 0.04028,2.32229c0.0358,0.76963 0.08054,1.48108 0.13424,2.13436c0.06265,0.64433 0.13871,1.15443 0.22821,1.53029z" fill="#182246" stroke="none" stroke-width="1" stroke-linecap="square" stroke-linejoin="miter"/><g fill="#182246" stroke="none" stroke-width="1" stroke-linecap="butt" stroke-linejoin="miter"><path d="M235.33354,84.90005c-0.08054,-0.15214 -0.21925,-0.3535 -0.41613,-0.60406c-0.19687,-0.25057 -0.37138,-0.4385 -0.52352,-0.56379c0.44746,-0.17899 0.91728,-0.41612 1.40948,-0.71144c0.49219,-0.29532 0.9665,-0.61749 1.4229,-0.9665c0.46535,-0.34901 0.87254,-0.69355 1.22155,-1.03361h-3.51698v-1.20812h3.57068v-4.76537h-2.8458v-1.18128h2.8458v-1.40947h1.44975v1.40948h4.28213v-1.40947h1.46318v1.40948h2.81896v1.18128h-2.81896v4.76538h3.57068v1.20812h-3.55725c0.35797,0.33111 0.76962,0.6667 1.23497,1.00677c0.46535,0.33111 0.94413,0.63539 1.43633,0.9128c0.50114,0.27742 0.97993,0.5101 1.43633,0.69803c-0.16108,0.12529 -0.33559,0.32217 -0.52352,0.59064c-0.18793,0.26847 -0.32664,0.47431 -0.41613,0.61749c-0.58169,-0.28638 -1.16785,-0.62643 -1.75849,-1.02019c-0.59064,-0.40271 -1.15443,-0.84568 -1.69137,-1.32893c-0.52799,-0.48325 -1.0023,-0.97544 -1.4229,-1.4766h-3.8123c-0.41165,0.50115 -0.88596,0.99782 -1.4229,1.49002c-0.528,0.48325 -1.08731,0.93071 -1.67795,1.34236c-0.58169,0.41165 -1.16785,0.76066 -1.75849,1.04704zM239.95126,79.81251h4.28213v-0.99335h-4.28213zM239.95126,77.8795h4.28213v-0.9665h-4.28213zM239.95126,75.98677h4.28213v-0.93965h-4.28213z"/><path d="M261.87629,87.06125v-2.8995h-2.8458v-1.35577h2.8458v-4.44321c-0.4743,0.74278 -1.03809,1.4945 -1.69137,2.25516c-0.64433,0.75172 -1.32893,1.45869 -2.05381,2.12093c-0.72487,0.65328 -1.44527,1.21707 -2.16119,1.69137c-0.08054,-0.08948 -0.18793,-0.20583 -0.32217,-0.34901c-0.13424,-0.15214 -0.27295,-0.29084 -0.41613,-0.41613c-0.13424,-0.12529 -0.2461,-0.21925 -0.33559,-0.28189c0.58169,-0.33111 1.17232,-0.74278 1.77191,-1.23497c0.60853,-0.49219 1.1947,-1.03361 1.7585,-1.62425c0.57274,-0.59064 1.10073,-1.19022 1.58398,-1.79876c0.48325,-0.61749 0.89491,-1.20812 1.23497,-1.77191h-5.66476v-1.35578h6.29567v-3.074h1.44975v3.07401h6.28224v1.35579h-5.65133c0.35797,0.59958 0.78304,1.20365 1.27525,1.81219c0.4922,0.60854 1.02019,1.1947 1.58398,1.7585c0.57274,0.56379 1.15891,1.08732 1.7585,1.57057c0.60853,0.47431 1.20365,0.86805 1.78534,1.18128c-0.09844,0.0716 -0.22373,0.17899 -0.37586,0.32217c-0.14319,0.13424 -0.28189,0.27742 -0.41613,0.42956c-0.13424,0.14318 -0.23715,0.26847 -0.30874,0.37586c-0.75172,-0.50115 -1.49449,-1.08283 -2.22832,-1.74507c-0.73383,-0.66224 -1.41843,-1.36473 -2.05381,-2.1075c-0.62644,-0.74278 -1.1768,-1.4945 -1.6511,-2.25516v4.51033h2.91292v1.35579h-2.91292v2.8995z"/><path d="M236.27319,86.8062v-1.26182h5.04727v-1.39605h-2.71157v-1.1947h2.71157v-1.57055h1.50344v1.57057h2.92634v1.1947h-2.92634v1.39605h5.18151v1.26182z"/></g><path d="M214.36504,114.46079h152.64598c3.75862,0 6.8056,3.04696 6.8056,6.80559c0,3.75862 -3.04697,6.8056 -6.8056,6.8056h-152.64598c-3.75862,0 -6.80559,-3.04697 -6.80559,-6.8056c0,-3.75862 3.04696,-6.80559 6.80559,-6.80559" fill="#f0f6ff" stroke="#20444f" stroke-width="1" stroke-linecap="round" stroke-linejoin="round"/><path d="M214.36504,153.33551h152.64598c3.75862,0 6.8056,3.04696 6.8056,6.80559c0,3.75862 -3.04697,6.8056 -6.8056,6.8056h-152.64598c-3.75862,0 -6.80559,-3.04697 -6.80559,-6.8056c0,-3.75862 3.04696,-6.80559 6.80559,-6.80559" fill="#aec0dd" stroke="#20444f" stroke-width="0" stroke-linecap="round" stroke-linejoin="round"/><path d="M214.36504,268.67106h152.64598c3.75862,0 6.8056,3.04696 6.8056,6.80559c0,3.75862 -3.04697,6.8056 -6.8056,6.8056h-152.64598c-3.75862,0 -6.80559,-3.04697 -6.80559,-6.8056c0,-3.75862 3.04696,-6.80559 6.80559,-6.80559" fill="#182246" stroke="#20444f" stroke-width="0" stroke-linecap="round" stroke-linejoin="round"/><path d="M367.01103,191.56593c3.75862,0 6.8056,3.04697 6.8056,6.8056c0,3.75862 -3.04697,6.8056 -6.8056,6.8056h-76.32299v-13.61119h76.32299" fill-opacity="0.25482" fill="#2e4770" stroke="#20444f" stroke-width="0" stroke-linecap="round" stroke-linejoin="round"/><path d="M214.36504,191.56593h76.32299v13.61119h-76.32299c-3.75862,0 -6.8056,-3.04697 -6.8056,-6.8056c0,-3.75862 3.04697,-6.8056 6.8056,-6.8056" fill="#2e4770" stroke="#20444f" stroke-width="0" stroke-linecap="round" stroke-linejoin="round"/><path d="M367.01103,230.22588c3.75862,0 6.8056,3.04697 6.8056,6.8056c0,3.75862 -3.04697,6.8056 -6.8056,6.8056h-76.32299v-13.61119h76.32299" fill-opacity="0.24664" fill="#1c2f5a" stroke="#20444f" stroke-width="0" stroke-linecap="round" stroke-linejoin="round"/><path d="M214.36504,230.22588h76.32299v13.61119h-76.32299c-3.75862,0 -6.8056,-3.04697 -6.8056,-6.8056c0,-3.75862 3.04697,-6.8056 6.8056,-6.8056" fill="#1c2f5a" stroke="#20444f" stroke-width="0" stroke-linecap="round" stroke-linejoin="round"/></g></g></svg>