<svg version="1.1" xmlns="http://www.w3.org/2000/svg" xmlns:xlink="http://www.w3.org/1999/xlink" width="98.7115" height="51.90765" viewBox="0,0,98.7115,51.90765"><g transform="translate(-190.64425,-154.04617)"><g data-paper-data="{&quot;isPaintingLayer&quot;:true}" fill-rule="nonzero" stroke-miterlimit="10" stroke-dasharray="" stroke-dashoffset="0" style="mix-blend-mode: normal"><path d="" fill="none" stroke="#20444f" stroke-width="3" stroke-linecap="round" stroke-linejoin="round"/><path d="M195.39425,166.19139c0,-4.08425 3.31094,-7.39521 7.39521,-7.39521h74.42107c4.08425,0 7.39521,3.31094 7.39521,7.39521v27.61722c0,4.08425 -3.31094,7.39521 -7.39521,7.39521h-74.42107c-4.08425,0 -7.39521,-3.31094 -7.39521,-7.39521v-27.61722" fill="#2e4770" stroke="#bec9da" stroke-width="9.5" stroke-linecap="round" stroke-linejoin="round"/><path d="M195.39425,166.19139c0,-4.08425 3.31094,-7.39521 7.39521,-7.39521h74.42107c4.08425,0 7.39521,3.31094 7.39521,7.39521v27.61722c0,4.08425 -3.31094,7.39521 -7.39521,7.39521h-74.42107c-4.08425,0 -7.39521,-3.31094 -7.39521,-7.39521v-27.61722" fill="#2e4770" stroke="#20444f" stroke-width="0" stroke-linecap="round" stroke-linejoin="round"/><text transform="translate(216.63891,187.00833) scale(0.58403,0.58403)" font-size="40" xml:space="preserve" fill="#f0f6ff" fill-rule="nonzero" stroke="#f0f6ff" stroke-width="1" stroke-linecap="butt" stroke-linejoin="miter" stroke-miterlimit="10" stroke-dasharray="" stroke-dashoffset="0" font-family="Sans Serif" font-weight="normal" text-anchor="start" style="mix-blend-mode: normal"><tspan x="0" dy="0">送信</tspan></text></g></g></svg>